<svg width="14" height="14" viewBox="0 0 14 14" fill="none" xmlns="http://www.w3.org/2000/svg">
<g clip-path="url(#clip0_74_1652)">
<path d="M11.79 5.61429C11.79 9.54429 6.73714 12.9129 6.73714 12.9129C6.73714 12.9129 1.68428 9.54429 1.68428 5.61429C1.68428 4.27419 2.21663 2.98897 3.16423 2.04138C4.11182 1.09378 5.39704 0.561432 6.73714 0.561432C8.07724 0.561432 9.36245 1.09378 10.31 2.04138C11.2576 2.98897 11.79 4.27419 11.79 5.61429Z" stroke="#9E9E9E" stroke-width="1.12286" stroke-linecap="round" stroke-linejoin="round"/>
<path d="M6.73714 7.29858C7.66734 7.29858 8.42142 6.5445 8.42142 5.61429C8.42142 4.68409 7.66734 3.93001 6.73714 3.93001C5.80693 3.93001 5.05285 4.68409 5.05285 5.61429C5.05285 6.5445 5.80693 7.29858 6.73714 7.29858Z" stroke="#9E9E9E" stroke-width="1.12286" stroke-linecap="round" stroke-linejoin="round"/>
</g>
<defs>
<clipPath id="clip0_74_1652">
<rect width="13.4743" height="13.4743" fill="white"/>
</clipPath>
</defs>
</svg>
