<svg width="24" height="24" viewBox="0 0 24 24" fill="none" xmlns="http://www.w3.org/2000/svg">
<path d="M12.0261 12.5652C12.537 12.5652 12.9512 12.1362 12.9512 11.6069C12.9512 11.0776 12.537 10.6486 12.0261 10.6486C11.5152 10.6486 11.101 11.0776 11.101 11.6069C11.101 12.1362 11.5152 12.5652 12.0261 12.5652Z" stroke="white" stroke-width="2" stroke-linecap="round" stroke-linejoin="round"/>
<path d="M12.0261 5.8569C12.537 5.8569 12.9512 5.42784 12.9512 4.89856C12.9512 4.36929 12.537 3.94023 12.0261 3.94023C11.5152 3.94023 11.101 4.36929 11.101 4.89856C11.101 5.42784 11.5152 5.8569 12.0261 5.8569Z" stroke="white" stroke-width="2" stroke-linecap="round" stroke-linejoin="round"/>
<path d="M12.0261 19.2736C12.537 19.2736 12.9512 18.8445 12.9512 18.3152C12.9512 17.786 12.537 17.3569 12.0261 17.3569C11.5152 17.3569 11.101 17.786 11.101 18.3152C11.101 18.8445 11.5152 19.2736 12.0261 19.2736Z" stroke="white" stroke-width="2" stroke-linecap="round" stroke-linejoin="round"/>
</svg>
