<svg width="23" height="24" viewBox="0 0 23 24" fill="none" xmlns="http://www.w3.org/2000/svg">
<g clip-path="url(#clip0_74_1863)">
<path d="M16.5367 20.3256V18.4056C16.5367 17.3871 16.1476 16.4104 15.4549 15.6902C14.7623 14.9701 13.8229 14.5655 12.8433 14.5655H5.45669C4.47716 14.5655 3.53775 14.9701 2.84512 15.6902C2.15248 16.4104 1.76337 17.3871 1.76337 18.4056V20.3256" stroke="white" stroke-width="1.49714" stroke-linecap="round" stroke-linejoin="round"/>
<path d="M9.15002 10.7254C11.1898 10.7254 12.8433 9.00617 12.8433 6.88535C12.8433 4.76454 11.1898 3.04528 9.15002 3.04528C7.11025 3.04528 5.4567 4.76454 5.4567 6.88535C5.4567 9.00617 7.11025 10.7254 9.15002 10.7254Z" stroke="white" stroke-width="1.49714" stroke-linecap="round" stroke-linejoin="round"/>
<path d="M22.0767 20.3256V18.4056C22.0761 17.5547 21.8037 16.7282 21.3023 16.0557C20.801 15.3833 20.099 14.903 19.3067 14.6903" stroke="white" stroke-width="1.49714" stroke-linecap="round" stroke-linejoin="round"/>
<path d="M15.6133 3.17009C16.4078 3.38158 17.1119 3.86198 17.6148 4.53553C18.1176 5.20909 18.3906 6.0375 18.3906 6.89016C18.3906 7.74282 18.1176 8.57123 17.6148 9.24479C17.1119 9.91834 16.4078 10.3987 15.6133 10.6102" stroke="white" stroke-width="1.49714" stroke-linecap="round" stroke-linejoin="round"/>
</g>
<defs>
<clipPath id="clip0_74_1863">
<rect width="22.16" height="23.0404" fill="white" transform="translate(0.840027 0.165237)"/>
</clipPath>
</defs>
</svg>
